<mxfile host="65bd71144e">
    <diagram id="l_FOOi8ijvNWRsZzo8Ve" name="main">
        <mxGraphModel dx="535" dy="475" grid="1" gridSize="10" guides="1" tooltips="1" connect="1" arrows="1" fold="1" page="1" pageScale="1" pageWidth="827" pageHeight="1169" background="#ffffff" math="0" shadow="0">
            <root>
                <mxCell id="0"/>
                <mxCell id="1" parent="0"/>
                <mxCell id="4" value="" style="edgeStyle=none;html=1;fontFamily=Times New Roman;fontSize=14;fontColor=#000000;strokeColor=#000000;strokeWidth=3;" edge="1" parent="1" source="2" target="3">
                    <mxGeometry relative="1" as="geometry"/>
                </mxCell>
                <mxCell id="2" value="&lt;font face=&quot;Times New Roman&quot; color=&quot;#000000&quot;&gt;&lt;span style=&quot;font-size: 14px;&quot;&gt;Начало&lt;/span&gt;&lt;/font&gt;" style="ellipse;whiteSpace=wrap;html=1;fillColor=#FFFFFF;strokeColor=#000000;" vertex="1" parent="1">
                    <mxGeometry x="240" width="120" height="80" as="geometry"/>
                </mxCell>
                <mxCell id="6" value="" style="edgeStyle=none;html=1;strokeColor=#000000;strokeWidth=3;fontFamily=Times New Roman;fontSize=14;fontColor=#000000;" edge="1" parent="1" source="3" target="5">
                    <mxGeometry relative="1" as="geometry"/>
                </mxCell>
                <mxCell id="3" value="number = 0" style="shape=process;whiteSpace=wrap;html=1;backgroundOutline=1;strokeColor=#000000;fontFamily=Times New Roman;fontSize=14;fontColor=#000000;fillColor=#FFFFFF;" vertex="1" parent="1">
                    <mxGeometry x="240" y="110" width="120" height="60" as="geometry"/>
                </mxCell>
                <mxCell id="5" value="scanf(&quot;%d&quot;, &amp;amp;number) != 1" style="rhombus;whiteSpace=wrap;html=1;strokeColor=#000000;fontFamily=Times New Roman;fontSize=14;fontColor=#000000;fillColor=#FFFFFF;" vertex="1" parent="1">
                    <mxGeometry x="195" y="200" width="210" height="80" as="geometry"/>
                </mxCell>
                <mxCell id="7" value="" style="endArrow=classic;html=1;strokeColor=#000000;strokeWidth=3;fontFamily=Times New Roman;fontSize=14;fontColor=#000000;exitX=0.5;exitY=1;exitDx=0;exitDy=0;" edge="1" parent="1" source="5">
                    <mxGeometry width="50" height="50" relative="1" as="geometry">
                        <mxPoint x="270" y="400" as="sourcePoint"/>
                        <mxPoint x="300" y="350" as="targetPoint"/>
                    </mxGeometry>
                </mxCell>
                <mxCell id="10" value="" style="edgeStyle=none;html=1;strokeColor=#000000;strokeWidth=3;fontFamily=Times New Roman;fontSize=14;fontColor=#000000;" edge="1" parent="1" source="8" target="9">
                    <mxGeometry relative="1" as="geometry"/>
                </mxCell>
                <mxCell id="8" value="&quot;Please, insert a natural number&quot;" style="shape=parallelogram;perimeter=parallelogramPerimeter;whiteSpace=wrap;html=1;fixedSize=1;strokeColor=#000000;fontFamily=Times New Roman;fontSize=14;fontColor=#000000;fillColor=#FFFFFF;" vertex="1" parent="1">
                    <mxGeometry x="200" y="350" width="205" height="60" as="geometry"/>
                </mxCell>
                <mxCell id="9" value="1" style="ellipse;whiteSpace=wrap;html=1;strokeColor=#000000;fontFamily=Times New Roman;fontSize=14;fontColor=#000000;fillColor=#FFFFFF;" vertex="1" parent="1">
                    <mxGeometry x="242.5" y="430" width="120" height="80" as="geometry"/>
                </mxCell>
                <mxCell id="11" value="true" style="text;html=1;align=center;verticalAlign=middle;resizable=0;points=[];autosize=1;strokeColor=none;fillColor=none;fontSize=14;fontFamily=Times New Roman;fontColor=#000000;" vertex="1" parent="1">
                    <mxGeometry x="225" y="295" width="50" height="30" as="geometry"/>
                </mxCell>
                <mxCell id="12" value="" style="endArrow=none;html=1;strokeColor=#000000;strokeWidth=3;fontFamily=Times New Roman;fontSize=14;fontColor=#000000;exitX=1;exitY=0.5;exitDx=0;exitDy=0;" edge="1" parent="1" source="5">
                    <mxGeometry width="50" height="50" relative="1" as="geometry">
                        <mxPoint x="430" y="390" as="sourcePoint"/>
                        <mxPoint x="510" y="240" as="targetPoint"/>
                    </mxGeometry>
                </mxCell>
                <mxCell id="13" value="true" style="text;html=1;align=center;verticalAlign=middle;resizable=0;points=[];autosize=1;strokeColor=none;fillColor=none;fontSize=14;fontFamily=Times New Roman;fontColor=#000000;" vertex="1" parent="1">
                    <mxGeometry x="430" y="210" width="50" height="30" as="geometry"/>
                </mxCell>
                <mxCell id="14" value="" style="endArrow=classic;html=1;strokeColor=#000000;strokeWidth=3;fontFamily=Times New Roman;fontSize=14;fontColor=#000000;entryX=0.5;entryY=0;entryDx=0;entryDy=0;" edge="1" parent="1" target="15">
                    <mxGeometry width="50" height="50" relative="1" as="geometry">
                        <mxPoint x="510" y="240" as="sourcePoint"/>
                        <mxPoint x="510" y="330" as="targetPoint"/>
                    </mxGeometry>
                </mxCell>
                <mxCell id="17" value="" style="edgeStyle=none;html=1;strokeColor=#000000;strokeWidth=3;fontFamily=Times New Roman;fontSize=14;fontColor=#000000;" edge="1" parent="1" source="15" target="16">
                    <mxGeometry relative="1" as="geometry"/>
                </mxCell>
                <mxCell id="15" value="counting_digits(number)" style="shape=parallelogram;perimeter=parallelogramPerimeter;whiteSpace=wrap;html=1;fixedSize=1;strokeColor=#000000;fontFamily=Times New Roman;fontSize=14;fontColor=#000000;fillColor=#FFFFFF;" vertex="1" parent="1">
                    <mxGeometry x="430" y="350" width="160" height="60" as="geometry"/>
                </mxCell>
                <mxCell id="16" value="0" style="ellipse;whiteSpace=wrap;html=1;strokeColor=#000000;fontFamily=Times New Roman;fontSize=14;fontColor=#000000;fillColor=#FFFFFF;" vertex="1" parent="1">
                    <mxGeometry x="450" y="430" width="120" height="80" as="geometry"/>
                </mxCell>
            </root>
        </mxGraphModel>
    </diagram>
    <diagram id="FDJaVcfJX2v_Bx9WlSvZ" name="counting_digits">
        <mxGraphModel dx="535" dy="475" grid="1" gridSize="10" guides="1" tooltips="1" connect="1" arrows="1" fold="1" page="1" pageScale="1" pageWidth="827" pageHeight="1169" background="#ffffff" math="0" shadow="0">
            <root>
                <mxCell id="0"/>
                <mxCell id="1" parent="0"/>
                <mxCell id="kTmN9jlGVwKe03WPTI2F-3" value="" style="edgeStyle=none;html=1;strokeColor=#000000;strokeWidth=3;fontFamily=Times New Roman;fontSize=14;fontColor=#000000;" edge="1" parent="1" source="kTmN9jlGVwKe03WPTI2F-1" target="kTmN9jlGVwKe03WPTI2F-2">
                    <mxGeometry relative="1" as="geometry"/>
                </mxCell>
                <mxCell id="kTmN9jlGVwKe03WPTI2F-1" value="y" style="ellipse;whiteSpace=wrap;html=1;strokeColor=#000000;fontFamily=Times New Roman;fontSize=14;fontColor=#000000;fillColor=#FFFFFF;" vertex="1" parent="1">
                    <mxGeometry x="210" width="120" height="80" as="geometry"/>
                </mxCell>
                <mxCell id="kTmN9jlGVwKe03WPTI2F-5" value="" style="edgeStyle=none;html=1;strokeColor=#000000;strokeWidth=3;fontFamily=Times New Roman;fontSize=14;fontColor=#000000;" edge="1" parent="1" source="kTmN9jlGVwKe03WPTI2F-2" target="kTmN9jlGVwKe03WPTI2F-4">
                    <mxGeometry relative="1" as="geometry"/>
                </mxCell>
                <mxCell id="kTmN9jlGVwKe03WPTI2F-2" value="counter = 0" style="shape=process;whiteSpace=wrap;html=1;backgroundOutline=1;strokeColor=#000000;fontFamily=Times New Roman;fontSize=14;fontColor=#000000;fillColor=#FFFFFF;" vertex="1" parent="1">
                    <mxGeometry x="210" y="110" width="120" height="60" as="geometry"/>
                </mxCell>
                <mxCell id="kTmN9jlGVwKe03WPTI2F-7" value="" style="edgeStyle=none;html=1;strokeColor=#000000;strokeWidth=3;fontFamily=Times New Roman;fontSize=14;fontColor=#000000;" edge="1" parent="1" source="kTmN9jlGVwKe03WPTI2F-4" target="kTmN9jlGVwKe03WPTI2F-6">
                    <mxGeometry relative="1" as="geometry"/>
                </mxCell>
                <mxCell id="kTmN9jlGVwKe03WPTI2F-4" value="y &amp;gt; 0" style="rhombus;whiteSpace=wrap;html=1;strokeColor=#000000;fontFamily=Times New Roman;fontSize=14;fontColor=#000000;fillColor=#FFFFFF;" vertex="1" parent="1">
                    <mxGeometry x="230" y="200" width="80" height="80" as="geometry"/>
                </mxCell>
                <mxCell id="kTmN9jlGVwKe03WPTI2F-10" value="" style="edgeStyle=none;html=1;strokeColor=#000000;strokeWidth=3;fontFamily=Times New Roman;fontSize=14;fontColor=#000000;" edge="1" parent="1" source="kTmN9jlGVwKe03WPTI2F-6" target="kTmN9jlGVwKe03WPTI2F-9">
                    <mxGeometry relative="1" as="geometry"/>
                </mxCell>
                <mxCell id="kTmN9jlGVwKe03WPTI2F-6" value="y = (int)y/10" style="shape=process;whiteSpace=wrap;html=1;backgroundOutline=1;strokeColor=#000000;fontFamily=Times New Roman;fontSize=14;fontColor=#000000;fillColor=#FFFFFF;" vertex="1" parent="1">
                    <mxGeometry x="210" y="320" width="120" height="60" as="geometry"/>
                </mxCell>
                <mxCell id="kTmN9jlGVwKe03WPTI2F-8" value="true" style="text;html=1;align=center;verticalAlign=middle;resizable=0;points=[];autosize=1;strokeColor=none;fillColor=none;fontSize=14;fontFamily=Times New Roman;fontColor=#000000;" vertex="1" parent="1">
                    <mxGeometry x="210" y="280" width="50" height="30" as="geometry"/>
                </mxCell>
                <mxCell id="kTmN9jlGVwKe03WPTI2F-9" value="counter = counter + 1" style="shape=process;whiteSpace=wrap;html=1;backgroundOutline=1;strokeColor=#000000;fontFamily=Times New Roman;fontSize=14;fontColor=#000000;fillColor=#FFFFFF;" vertex="1" parent="1">
                    <mxGeometry x="185" y="420" width="170" height="60" as="geometry"/>
                </mxCell>
                <mxCell id="kTmN9jlGVwKe03WPTI2F-11" value="" style="endArrow=none;html=1;strokeColor=#000000;strokeWidth=3;fontFamily=Times New Roman;fontSize=14;fontColor=#000000;exitX=0.5;exitY=1;exitDx=0;exitDy=0;" edge="1" parent="1" source="kTmN9jlGVwKe03WPTI2F-9">
                    <mxGeometry width="50" height="50" relative="1" as="geometry">
                        <mxPoint x="270" y="340" as="sourcePoint"/>
                        <mxPoint x="270" y="530" as="targetPoint"/>
                    </mxGeometry>
                </mxCell>
                <mxCell id="kTmN9jlGVwKe03WPTI2F-12" value="" style="endArrow=none;html=1;strokeColor=#000000;strokeWidth=3;fontFamily=Times New Roman;fontSize=14;fontColor=#000000;" edge="1" parent="1">
                    <mxGeometry width="50" height="50" relative="1" as="geometry">
                        <mxPoint x="270" y="530" as="sourcePoint"/>
                        <mxPoint x="390" y="530" as="targetPoint"/>
                    </mxGeometry>
                </mxCell>
                <mxCell id="kTmN9jlGVwKe03WPTI2F-13" value="" style="endArrow=none;html=1;strokeColor=#000000;strokeWidth=3;fontFamily=Times New Roman;fontSize=14;fontColor=#000000;" edge="1" parent="1">
                    <mxGeometry width="50" height="50" relative="1" as="geometry">
                        <mxPoint x="390" y="530" as="sourcePoint"/>
                        <mxPoint x="390" y="240" as="targetPoint"/>
                    </mxGeometry>
                </mxCell>
                <mxCell id="kTmN9jlGVwKe03WPTI2F-14" value="" style="endArrow=classic;html=1;strokeColor=#000000;strokeWidth=3;fontFamily=Times New Roman;fontSize=14;fontColor=#000000;entryX=1;entryY=0.5;entryDx=0;entryDy=0;" edge="1" parent="1" target="kTmN9jlGVwKe03WPTI2F-4">
                    <mxGeometry width="50" height="50" relative="1" as="geometry">
                        <mxPoint x="390" y="240" as="sourcePoint"/>
                        <mxPoint x="320" y="290" as="targetPoint"/>
                    </mxGeometry>
                </mxCell>
                <mxCell id="kTmN9jlGVwKe03WPTI2F-15" value="" style="endArrow=none;html=1;strokeColor=#000000;strokeWidth=3;fontFamily=Times New Roman;fontSize=14;fontColor=#000000;entryX=0;entryY=0.5;entryDx=0;entryDy=0;" edge="1" parent="1" target="kTmN9jlGVwKe03WPTI2F-4">
                    <mxGeometry width="50" height="50" relative="1" as="geometry">
                        <mxPoint x="130" y="240" as="sourcePoint"/>
                        <mxPoint x="320" y="290" as="targetPoint"/>
                    </mxGeometry>
                </mxCell>
                <mxCell id="kTmN9jlGVwKe03WPTI2F-16" value="" style="endArrow=classic;html=1;strokeColor=#000000;strokeWidth=3;fontFamily=Times New Roman;fontSize=14;fontColor=#000000;" edge="1" parent="1">
                    <mxGeometry width="50" height="50" relative="1" as="geometry">
                        <mxPoint x="130" y="240" as="sourcePoint"/>
                        <mxPoint x="130" y="320" as="targetPoint"/>
                    </mxGeometry>
                </mxCell>
                <mxCell id="kTmN9jlGVwKe03WPTI2F-17" value="counter" style="ellipse;whiteSpace=wrap;html=1;strokeColor=#000000;fontFamily=Times New Roman;fontSize=14;fontColor=#000000;fillColor=#FFFFFF;" vertex="1" parent="1">
                    <mxGeometry x="70" y="320" width="120" height="80" as="geometry"/>
                </mxCell>
                <mxCell id="kTmN9jlGVwKe03WPTI2F-18" value="false" style="text;html=1;align=center;verticalAlign=middle;resizable=0;points=[];autosize=1;strokeColor=none;fillColor=none;fontSize=14;fontFamily=Times New Roman;fontColor=#000000;" vertex="1" parent="1">
                    <mxGeometry x="155" y="210" width="50" height="30" as="geometry"/>
                </mxCell>
            </root>
        </mxGraphModel>
    </diagram>
</mxfile>